# xmcd
#
# Track frame offsets:
#	150
#	17387
#	39919
#	63551
#	85578
#	108296
#	122842
#	145227
#	154634
#	183737
#	207459
#	232210
#	255583
#	276927
#	295415
#	318705
#
# Disc length: 4434 seconds
#
# Revision: 4
# Processed by: cddbd v1.5.2PL0 Copyright (c) Steve Scherf et al.
# Submitted via: audiograbber 1.83.01
#
DISCID=eb115010
DTITLE=Gold Instrumental Collection - Spanish Guitar  - CD1 Gold Instrumental C
DTITLE=ollection
DYEAR=2005
DGENRE=Instrumental
TTITLE0=Jesse Cook - Mario Takes A Walk
TTITLE1=Nova Menco - El Rio
TTITLE2=Armik - Pure Paradise
TTITLE3=Robert Michaels - Sunset Sumba
TTITLE4=Armik - For Your Eyes
TTITLE5=Jesse Cook - Brio
TTITLE6=Armik - Tear Drops
TTITLE7=Nova Menco - Journey Intro
TTITLE8=Nova Menco - Journey
TTITLE9=Armik - Rubia
TTITLE10=Lara and Reyes - Exotico
TTITLE11=Armik - Sailing To Bimini
TTITLE12=Nova Menco - Gypsy Wedding
TTITLE13=Acoustic Alchemy - Fire Of The Heart
TTITLE14=Armik - Veil Of Desire
TTITLE15=Jesse Cook - Jump Start
EXTD=
EXTT0=
EXTT1=
EXTT2=
EXTT3=
EXTT4=
EXTT5=
EXTT6=
EXTT7=
EXTT8=
EXTT9=
EXTT10=
EXTT11=
EXTT12=
EXTT13=
EXTT14=
EXTT15=
PLAYORDER=
